<svg width="685" height="1245" viewBox="0 0 685 1245" fill="none" xmlns="http://www.w3.org/2000/svg">
<rect width="685" height="1245" fill="#212121"/>
<mask id="mask0_3321_529" style="mask-type:alpha" maskUnits="userSpaceOnUse" x="0" y="0" width="685" height="1245">
<rect width="685" height="1245" fill="#212121"/>
</mask>
<g mask="url(#mask0_3321_529)">
<path d="M471.5 701.789C471.5 885.023 234.774 1365.34 84 1365.34C-66.7737 1365.34 -189 1216.8 -189 1033.56C-189 850.329 -66.7737 701.789 84 701.789C234.774 701.789 471.5 518.554 471.5 701.789Z" fill="#646464"/>
<path d="M1050.5 -254.836C1050.5 -71.6019 813.774 408.714 663 408.714C512.226 408.714 390 260.173 390 76.9389C390 -106.295 512.226 -254.836 663 -254.836C813.774 -254.836 1050.5 -438.071 1050.5 -254.836Z" fill="#646464"/>
</g>
</svg>
